<svg xmlns="http://www.w3.org/2000/svg" width="24" height="24" viewBox="0 0 24 24"><path fill="#4B5563" d="M19.14 12.94a7.43 7.43 0 0 0 0-1.88l2.11-1.65a.5.5 0 0 0 .12-.64l-2-3.46a.5.5 0 0 0-.6-.22l-2.49 1a7.51 7.51 0 0 0-1.62-.94l-.38-2.65A.5.5 0 0 0 13.8 2h-3.6a.5.5 0 0 0-.5.42l-.38 2.65a7.51 7.51 0 0 0-1.62.94l-2.49-1a.5.5 0 0 0-.6.22l-2 3.46a.5.5 0 0 0 .12.64L4.86 11a7.43 7.43 0 0 0 0 1.88l-2.11 1.65a.5.5 0 0 0-.12.64l2 3.46a.5.5 0 0 0 .6.22l2.49-1a7.51 7.51 0 0 0 1.62.94l.38 2.65a.5.5 0 0 0 .5.42h3.6a.5.5 0 0 0 .5-.42l.38-2.65a7.51 7.51 0 0 0 1.62-.94l2.49 1a.5.5 0 0 0 .6-.22l2-3.46a.5.5 0 0 0-.12-.64ZM12 15.5A3.5 3.5 0 1 1 15.5 12A3.5 3.5 0 0 1 12 15.5Z"/></svg>
